<svg width="702" height="214" viewBox="0 0 702 214" fill="none" xmlns="http://www.w3.org/2000/svg">
<g filter="url(#filter0_di_134_16)">
<path d="M61.5874 79.3636H72.3146V90.0909H61.5874V79.3636ZM50.8601 79.3636H61.5874V90.0909H50.8601V79.3636ZM50.8601 90.0909H61.5874V100.818H50.8601V90.0909ZM40.1328 100.818H50.8601V111.545H40.1328V100.818ZM40.1328 111.545H50.8601V122.273H40.1328V111.545ZM50.8601 122.273H61.5874V133H50.8601V122.273ZM50.8601 133H61.5874V143.727H50.8601V133ZM61.5874 133H72.3146V143.727H61.5874V133ZM104.455 79.3636H115.182V90.0909H104.455V79.3636ZM93.7273 79.3636H104.455V90.0909H93.7273V79.3636ZM93.7273 90.0909H104.455V100.818H93.7273V90.0909ZM83 100.818H93.7273V111.545H83V100.818ZM83 111.545H93.7273V122.273H83V111.545ZM93.7273 122.273H104.455V133H93.7273V122.273ZM93.7273 133H104.455V143.727H93.7273V133ZM104.455 133H115.182V143.727H104.455V133Z" fill="url(#paint0_linear_134_16)" fill-opacity="0.8" shape-rendering="crispEdges"/>
</g>
<path d="M174.288 79.8182H186.925V92.4545H174.288V79.8182ZM161.652 79.8182H174.288V92.4545H161.652V79.8182ZM149.016 92.4545H161.652V105.091H149.016V92.4545ZM149.016 105.091H161.652V117.727H149.016V105.091ZM161.652 105.091H174.288V117.727H161.652V105.091ZM174.288 105.091H186.925V117.727H174.288V105.091ZM174.288 117.727H186.925V130.364H174.288V117.727ZM174.288 130.364H186.925V143H174.288V130.364ZM161.652 130.364H174.288V143H161.652V130.364ZM149.016 130.364H161.652V143H149.016V130.364ZM149.016 79.8182H161.652V92.4545H149.016V79.8182ZM199.512 79.8182H212.148V92.4545H199.512V79.8182ZM199.512 92.4545H212.148V105.091H199.512V92.4545ZM199.512 105.091H212.148V117.727H199.512V105.091ZM199.512 117.727H212.148V130.364H199.512V117.727ZM199.512 130.364H212.148V143H199.512V130.364ZM212.148 130.364H224.784V143H212.148V130.364ZM224.784 130.364H237.421V143H224.784V130.364ZM224.784 117.727H237.421V130.364H224.784V117.727ZM224.784 105.091H237.421V117.727H224.784V105.091ZM224.784 92.4545H237.421V105.091H224.784V92.4545ZM224.784 79.8182H237.421V92.4545H224.784V79.8182ZM250.008 79.8182H262.644V92.4545H250.008V79.8182ZM250.008 92.4545H262.644V105.091H250.008V92.4545ZM250.008 105.091H262.644V117.727H250.008V105.091ZM250.008 117.727H262.644V130.364H250.008V117.727ZM250.008 130.364H262.644V143H250.008V130.364ZM262.644 79.8182H275.281V92.4545H262.644V79.8182ZM275.281 79.8182H287.917V92.4545H275.281V79.8182ZM275.281 92.4545H287.917V105.091H275.281V92.4545ZM275.281 105.091H287.917V117.727H275.281V105.091ZM262.644 105.091H275.281V117.727H262.644V105.091ZM300.504 79.8182H313.14V92.4545H300.504V79.8182ZM300.504 92.4545H313.14V105.091H300.504V92.4545ZM300.504 105.091H313.14V117.727H300.504V105.091ZM300.504 117.727H313.14V130.364H300.504V117.727ZM300.504 130.364H313.14V143H300.504V130.364ZM313.14 79.8182H325.777V92.4545H313.14V79.8182ZM313.14 130.364H325.777V143H313.14V130.364ZM313.14 105.091H325.777V117.727H313.14V105.091ZM325.777 79.8182H338.413V92.4545H325.777V79.8182ZM325.777 130.364H338.413V143H325.777V130.364ZM351 130.364H363.636V143H351V130.364ZM351 117.727H363.636V130.364H351V117.727ZM351 105.091H363.636V117.727H351V105.091ZM351 92.4545H363.636V105.091H351V92.4545ZM351 79.8182H363.636V92.4545H351V79.8182ZM363.636 79.8182H376.273V92.4545H363.636V79.8182ZM376.273 79.8182H388.909V92.4545H376.273V79.8182ZM376.273 92.4545H388.909V105.091H376.273V92.4545ZM363.636 105.091H376.273V117.727H363.636V105.091ZM376.273 117.727H388.909V130.364H376.273V117.727ZM376.273 130.364H388.909V143H376.273V130.364ZM426.769 79.8182H439.405V92.4545H426.769V79.8182ZM414.132 79.8182H426.769V92.4545H414.132V79.8182ZM401.496 92.4545H414.132V105.091H401.496V92.4545ZM401.496 105.091H414.132V117.727H401.496V105.091ZM414.132 105.091H426.769V117.727H414.132V105.091ZM426.769 105.091H439.405V117.727H426.769V105.091ZM426.769 117.727H439.405V130.364H426.769V117.727ZM426.769 130.364H439.405V143H426.769V130.364ZM414.132 130.364H426.769V143H414.132V130.364ZM401.496 130.364H414.132V143H401.496V130.364ZM401.496 79.8182H414.132V92.4545H401.496V79.8182ZM451.992 79.8182H464.629V92.4545H451.992V79.8182ZM451.992 92.4545H464.629V105.091H451.992V92.4545ZM451.992 105.091H464.629V117.727H451.992V105.091ZM451.992 117.727H464.629V130.364H451.992V117.727ZM451.992 130.364H464.629V143H451.992V130.364ZM464.629 79.8182H477.265V92.4545H464.629V79.8182ZM464.629 130.364H477.265V143H464.629V130.364ZM464.629 105.091H477.265V117.727H464.629V105.091ZM477.265 79.8182H489.901V92.4545H477.265V79.8182ZM477.265 130.364H489.901V143H477.265V130.364ZM502.488 79.8182H515.125V92.4545H502.488V79.8182ZM515.125 79.8182H527.761V92.4545H515.125V79.8182ZM527.761 79.8182H540.397V92.4545H527.761V79.8182ZM515.125 92.4545H527.761V105.091H515.125V92.4545ZM515.125 105.091H527.761V117.727H515.125V105.091ZM515.125 117.727H527.761V130.364H515.125V117.727ZM515.125 130.364H527.761V143H515.125V130.364Z" fill="#EAE8E6"/>
<g filter="url(#filter1_di_134_16)">
<path d="M576.133 79.3636H586.86V90.0909H576.133V79.3636ZM586.86 90.0909H597.587V100.818H586.86V90.0909ZM597.587 100.818H608.315V111.545H597.587V100.818ZM586.86 122.273H597.587V133H586.86V122.273ZM576.133 133H586.86V143.727H576.133V133ZM597.587 111.545H608.315V122.273H597.587V111.545ZM586.86 133H597.587V143.727H586.86V133ZM586.86 79.3636H597.587V90.0909H586.86V79.3636ZM619 79.3636H629.727V90.0909H619V79.3636ZM629.727 90.0909H640.455V100.818H629.727V90.0909ZM640.455 100.818H651.182V111.545H640.455V100.818ZM629.727 122.273H640.455V133H629.727V122.273ZM619 133H629.727V143.727H619V133ZM640.455 111.545H651.182V122.273H640.455V111.545ZM629.727 133H640.455V143.727H629.727V133ZM629.727 79.3636H640.455V90.0909H629.727V79.3636Z" fill="url(#paint1_linear_134_16)" fill-opacity="0.8" shape-rendering="crispEdges"/>
</g>
<defs>
<filter id="filter0_di_134_16" x="36.1328" y="79.3638" width="83.0488" height="72.3633" filterUnits="userSpaceOnUse" color-interpolation-filters="sRGB">
<feFlood flood-opacity="0" result="BackgroundImageFix"/>
<feColorMatrix in="SourceAlpha" type="matrix" values="0 0 0 0 0 0 0 0 0 0 0 0 0 0 0 0 0 0 127 0" result="hardAlpha"/>
<feOffset dy="4"/>
<feGaussianBlur stdDeviation="2"/>
<feComposite in2="hardAlpha" operator="out"/>
<feColorMatrix type="matrix" values="0 0 0 0 0 0 0 0 0 0 0 0 0 0 0 0 0 0 0.25 0"/>
<feBlend mode="normal" in2="BackgroundImageFix" result="effect1_dropShadow_134_16"/>
<feBlend mode="normal" in="SourceGraphic" in2="effect1_dropShadow_134_16" result="shape"/>
<feColorMatrix in="SourceAlpha" type="matrix" values="0 0 0 0 0 0 0 0 0 0 0 0 0 0 0 0 0 0 127 0" result="hardAlpha"/>
<feOffset dy="3"/>
<feGaussianBlur stdDeviation="1.05"/>
<feComposite in2="hardAlpha" operator="arithmetic" k2="-1" k3="1"/>
<feColorMatrix type="matrix" values="0 0 0 0 1 0 0 0 0 1 0 0 0 0 1 0 0 0 0.57 0"/>
<feBlend mode="normal" in2="shape" result="effect2_innerShadow_134_16"/>
</filter>
<filter id="filter1_di_134_16" x="572.133" y="79.3638" width="83.0488" height="72.3633" filterUnits="userSpaceOnUse" color-interpolation-filters="sRGB">
<feFlood flood-opacity="0" result="BackgroundImageFix"/>
<feColorMatrix in="SourceAlpha" type="matrix" values="0 0 0 0 0 0 0 0 0 0 0 0 0 0 0 0 0 0 127 0" result="hardAlpha"/>
<feOffset dy="4"/>
<feGaussianBlur stdDeviation="2"/>
<feComposite in2="hardAlpha" operator="out"/>
<feColorMatrix type="matrix" values="0 0 0 0 0 0 0 0 0 0 0 0 0 0 0 0 0 0 0.25 0"/>
<feBlend mode="normal" in2="BackgroundImageFix" result="effect1_dropShadow_134_16"/>
<feBlend mode="normal" in="SourceGraphic" in2="effect1_dropShadow_134_16" result="shape"/>
<feColorMatrix in="SourceAlpha" type="matrix" values="0 0 0 0 0 0 0 0 0 0 0 0 0 0 0 0 0 0 127 0" result="hardAlpha"/>
<feOffset dy="3"/>
<feGaussianBlur stdDeviation="1.05"/>
<feComposite in2="hardAlpha" operator="arithmetic" k2="-1" k3="1"/>
<feColorMatrix type="matrix" values="0 0 0 0 1 0 0 0 0 1 0 0 0 0 1 0 0 0 0.57 0"/>
<feBlend mode="normal" in2="shape" result="effect2_innerShadow_134_16"/>
</filter>
<linearGradient id="paint0_linear_134_16" x1="83" y1="86.6" x2="82.9215" y2="131.8" gradientUnits="userSpaceOnUse">
<stop stop-color="#BBB9B7"/>
<stop offset="1" stop-color="#848382"/>
</linearGradient>
<linearGradient id="paint1_linear_134_16" x1="619" y1="86.6" x2="618.921" y2="131.8" gradientUnits="userSpaceOnUse">
<stop stop-color="#BBB9B7"/>
<stop offset="1" stop-color="#848382"/>
</linearGradient>
</defs>
</svg>
