<svg width="145" height="60" viewBox="0 0 145 60" fill="none" xmlns="http://www.w3.org/2000/svg">
<g clip-path="url(#clip0_48_868)">
<path d="M125 0H115V10H125V20H135V30V40H125V50H115V60H125H135V50V40H145V30V20H135V10V0H125Z" fill="#EAE8E6"/>
<path d="M20 0H30V10H20V20H10V30V40H20V50H30V60H20H10V50V40H0V30V20H10V10V0H20Z" fill="#EAE8E6"/>
<path d="M89.9999 0H79.9999V10H89.9999V20H99.9999V30V40H89.9999V50H79.9999V60H89.9999H99.9999V50V40H110V30V20H99.9999V10V0H89.9999Z" fill="#EAE8E6"/>
<path d="M54.9999 0H64.9999V10H54.9999V20H44.9999V30V40H54.9999V50H64.9999V60H54.9999H44.9999V50V40H34.9999V30V20H44.9999V10V0H54.9999Z" fill="#EAE8E6"/>
</g>
<defs>
<clipPath id="clip0_48_868">
<rect width="145" height="60" fill="white"/>
</clipPath>
</defs>
</svg>
