<svg xmlns="http://www.w3.org/2000/svg" xml:space="preserve" id="Layer_1" x="0" y="0" viewBox="0 0 209.5 48"><style>.st0{fill:#fff}</style><path d="M110.2 29c-5.3 0-9.5 4.1-9.5 9.5s4.3 9.5 9.5 9.5c5.3 0 9.5-4.2 9.5-9.5 0-5.4-4.2-9.5-9.5-9.5m0 3.8c3.2 0 5.6 2.4 5.6 5.7s-2.5 5.7-5.6 5.7c-3.2 0-5.6-2.4-5.6-5.7-.1-3.3 2.4-5.7 5.6-5.7M189.3 41.9v-8.7h4.5v-3.8h-4.5v-5.1l-3.9 1.2v3.9h-3.3v3.8h3.3v8.7c0 4.7 2.4 6.4 8.4 5.6V44c-3 .2-4.5.2-4.5-2.1M209.5 43.9h-8.9l8.9-10.7v-3.6h-13.8v3.6h8.9l-8.9 10.7v3.7h13.8zM52.5 16.2q0 .15 0 0 0 .15 0 0 0 .15 0 0M53.8 1.2l4-1.2v25.3h-4v-1.4c-1.8 1.3-4.1 2-6.6 1.8-4.4-.4-8.1-4-8.5-8.5 0-.4-.1-.7-.1-1.1 0-.3 0-.6.1-.9v-.4c0-.2.1-.4.1-.6 0-.1 0-.2.1-.2v-.2c0-.2.1-.3.1-.5 0-.1.1-.2.1-.3v-.1c.1-.2.1-.3.2-.5 0-.1.1-.2.1-.3V12c.1-.2.2-.3.2-.5.1-.1.1-.2.2-.3s.2-.3.3-.4l.3-.3c.1-.1.2-.3.3-.4l.3-.3.4-.4.3-.3c.1-.1.3-.2.4-.3.4-.2.5-.3.6-.4s.3-.2.4-.3h.1c.1-.1.2-.1.3-.2.2-.1.3-.2.5-.2h.1c.1 0 .2-.1.3-.1.2-.1.3-.1.5-.2h.1c.1 0 .2-.1.3-.1.2-.1.3-.1.5-.1h.2c.1 0 .2 0 .3-.1.2 0 .4-.1.6-.1h.3c.3 0 .7-.1 1-.1 2.1 0 4 .7 5.6 1.8zM47 21.7c3.6.8 6.8-2 6.8-5.4v-.1c0-3.1-2.5-5.6-5.6-5.6h-.8c-.1 0-.3 0-.4.1h-.1c-.1 0-.2.1-.3.1s-.2.1-.2.1c-.1 0-.2.1-.3.1s-.1.1-.2.1c-.1.1-.2.1-.3.2-.1 0-.1.1-.2.1-.1.1-.2.1-.3.2H45l-.1.1-.3.3-.1.1-.4.4c-.1.1-.2.3-.3.4 0 0 0 .1-.1.1v.1c-.1.1-.1.2-.2.3 0 .1-.1.1-.1.2-.1.1-.1.2-.1.3s-.1.1-.1.2-.1.2-.1.3 0 .2-.1.2c0 .1 0 .2-.1.4v.9c0 .4 0 .8.1 1.3.2 2.4 1.9 4.1 4 4.5M14.1 16.2q0 .15 0 0 0 .15 0 0M15.1 7.3v1.2c-1.5-1.1-3.5-1.8-5.5-1.8C4 6.7-.5 11.6.1 17.3c.5 4.4 4.1 8 8.5 8.5 2.5.2 4.8-.5 6.6-1.8v1.4h4V7.3zm0 9c0 3.5-3.2 6.2-6.8 5.4-2.1-.4-3.8-2.1-4.3-4.3-.7-3.6 2.1-6.8 5.6-6.8 3 0 5.5 2.5 5.5 5.7M130.7 29.2v4.2c-2.6-.2-5.6 1-5.6 5.1v9.1h-3.9V29.5h3.9v3c1.1-2.4 3.3-3.3 5.6-3.3M140.1 29c-5.3 0-9.5 4.1-9.5 9.5s4.3 9.5 9.5 9.5c5.3 0 9.5-4.2 9.5-9.5.1-5.4-4.1-9.5-9.5-9.5m0 3.8c3.2 0 5.6 2.4 5.6 5.7s-2.5 5.7-5.6 5.7c-3.2 0-5.6-2.4-5.6-5.7s2.5-5.7 5.6-5.7M175.4 29.5l-5.7 18.1h-3.8l-3.8-12.2-3.8 12.2h-3.8l-5.7-18.1h4.1l3.5 12.5 3.8-12.5h3.7l3.8 12.5 3.5-12.5zM180.6 29.5h-3.9v18.1h3.9zM68.8 7v4.2c-2.6-.2-5.6 1-5.6 5.1v9.1h-3.9V7.3h3.9v3C64.3 7.9 66.5 7 68.8 7M92.3 29c-2.5 0-4.4.9-5.6 2.8v-9.9l-3.2-1.8c-.2.3-.4.6-.7.8-1 .8-2.3 1.4-4 1.4-2.9 0-5.2-1.5-5.8-4.3h14.5c0-.5.1-1.1.1-1.6 0-5.2-3.7-9.5-9.1-9.5-5.6 0-9.5 4.1-9.5 9.5s3.8 9.5 9.8 9.5c1.5 0 2.8-.3 4-.8v22.5h3.9v-9.7c0-3.7 2-5.2 4.6-5.2 2.4 0 4 1.5 4 4.2v10.7h3.9V36.4c0-4.7-2.9-7.4-6.9-7.4M78.4 10.4c2.4 0 4.6 1.3 5.2 4.4H73c.5-2.7 2.5-4.4 5.4-4.4" class="st0"/><path d="M102.9 20c-.9 1.3-2.5 2.2-4.7 2.2-2.9 0-5.2-1.4-5.8-4.3h14.4c.1-.5.1-1.1.1-1.6 0-5.2-3.7-9.5-9.1-9.5-5.7 0-9.5 4.2-9.5 9.5 0 5.4 3.9 9.5 9.8 9.5 3.5 0 6.3-1.5 7.9-3.9zm-5-9.6c2.4 0 4.6 1.3 5.2 4.4H92.4c.6-2.7 2.6-4.4 5.5-4.4M147.6 22.3c2.2 0 3.8-1 4.7-2.2l3.2 1.9c-1.7 2.5-4.4 3.9-7.9 3.9-6 0-9.8-4.1-9.8-9.5s3.9-9.5 9.5-9.5c5.4 0 9.1 4.3 9.1 9.5 0 .5-.1 1.1-.1 1.6h-14.4c.5 2.8 2.8 4.3 5.7 4.3m4.8-7.5c-.5-3.1-2.8-4.4-5.2-4.4-2.9 0-4.9 1.7-5.5 4.4zM176.7 25.4h3.9v-3.5h-3.9zM30.2 6.8c-2.5 0-4.4.9-5.6 2.8V7.2h-3.9v18.1h3.9v-9.7c0-3.7 2-5.2 4.6-5.2 2.5 0 4 1.4 4 4.2v10.7h3.9v-11c.1-4.7-2.8-7.5-6.9-7.5M162.2 25.4h-3.9V7.3h3.9v2.3c1.2-1.9 3.1-2.8 5.6-2.8 4 0 6.9 2.7 6.9 7.4v11.1h-3.9V14.7c0-2.7-1.6-4.2-4-4.2-2.6 0-4.6 1.5-4.6 5.2zM112.1 12.3c0-1.3 1.2-1.9 2.6-1.9s2.6.6 3.3 1.8l3.4-1.7c-1.3-2.3-3.7-3.7-6.7-3.7-3.7 0-6.6 2.1-6.6 5.5 0 3.8 3.3 4.7 6.1 5.5 2 .6 3.6 1 3.6 2.4s-1.3 2-3.1 2c-1.7 0-3.1-.7-3.8-2l-3.5 1.7c1.2 2.4 3.8 3.9 7.2 3.9 3.9 0 7.1-2 7.1-5.6 0-3.9-3.4-4.9-6.1-5.6-1.8-.5-3.5-1-3.5-2.3M129.8 10.4c-1.4 0-2.6.6-2.6 1.9 0 1.4 1.7 1.8 3.6 2.4 2.8.8 6.1 1.7 6.1 5.6 0 3.6-3.1 5.6-7.1 5.6-3.5 0-6-1.5-7.2-3.9l3.5-1.7c.7 1.3 2 2 3.8 2 1.7 0 3.1-.6 3.1-2 0-1.3-1.7-1.8-3.6-2.4-2.8-.8-6.1-1.7-6.1-5.5 0-3.4 2.9-5.5 6.6-5.5 2.9 0 5.4 1.4 6.7 3.7l-3.4 1.7c-.8-1.3-2-1.9-3.4-1.9" class="st0"/></svg>