<svg xmlns="http://www.w3.org/2000/svg" width="114" height="36" fill="none" viewBox="0 0 114 36"><path fill="#f1f1f1" d="M12.215 34q-2.918 0-5.378-1.413a10.6 10.6 0 0 1-3.829-3.783q-1.413-2.416-1.413-5.287t1.413-5.241a10.5 10.5 0 0 1 3.829-3.829q2.46-1.413 5.378-1.413h10.392V34zm.045-4.831q1.505 0 2.78-.775a5.64 5.64 0 0 0 2.006-2.051 5.5 5.5 0 0 0 .775-2.826 5.34 5.34 0 0 0-.775-2.826 5.2 5.2 0 0 0-2.005-2.05 5.26 5.26 0 0 0-2.78-.775q-1.505 0-2.78.774a6 6 0 0 0-2.052 2.051q-.73 1.276-.73 2.826a5.76 5.76 0 0 0 .73 2.826q.775 1.275 2.051 2.05 1.276.776 2.78.776M47.565 2.096V34H37.082a10.2 10.2 0 0 1-5.242-1.413 10.5 10.5 0 0 1-3.828-3.828 10.2 10.2 0 0 1-1.413-5.242 10.2 10.2 0 0 1 1.413-5.241 10.5 10.5 0 0 1 3.828-3.829 10.2 10.2 0 0 1 5.242-1.413h5.56V2.096zM37.219 29.169q1.503 0 2.78-.775a5.64 5.64 0 0 0 2.005-2.051 5.5 5.5 0 0 0 .775-2.826 5.34 5.34 0 0 0-.775-2.826A5.2 5.2 0 0 0 40 18.641a5.26 5.26 0 0 0-2.78-.775 5.2 5.2 0 0 0-2.735.774 5.2 5.2 0 0 0-2.006 2.051q-.729 1.276-.729 2.826 0 1.505.73 2.826a5.64 5.64 0 0 0 2.005 2.05q1.276.776 2.734.776m43.49-16.135h21.149q2.552 0 4.512 1.048 2.006 1.003 3.099 2.872t1.094 4.33V34h-4.922V21.284q0-1.596-1.094-2.69t-2.689-1.093q-1.504 0-2.644 1.094-1.094 1.093-1.094 2.689V34h-4.968V21.284q0-1.596-1.094-2.69a3.6 3.6 0 0 0-2.643-1.093q-1.55 0-2.69 1.094-1.092 1.093-1.093 2.689V34H80.71z"/><g clip-path="url(#a)"><path fill="#c12d9c" d="m69.876 31.695-.965-3.378-.724-2.52-1.78-6.227-7.2-.26-1.47-.05c-.375 0-.726.042-1.057.116-1.302.287-2.274 1.06-2.921 1.827a5.7 5.7 0 0 0-.71 1.07c-.173.34-.316.692-.44 1.05l-.087.27a8.54 8.54 0 0 0 1.008 7.064 8.5 8.5 0 0 0 3.162 2.89c1.407.757 2.99 1.116 4.48.983h.027l.67-.096 8.449-1.19-.446-1.554zM58.93 22.042c1.657-.777 3.778-.051 4.968 1.796.76 1.185.967 2.563.665 3.743-.189.748-.585 1.418-1.173 1.903q-.101.086-.217.167c-1.701 1.183-4.134.5-5.44-1.523-.853-1.33-1.01-2.91-.532-4.17a3.47 3.47 0 0 1 1.257-1.641c.154-.108.307-.196.47-.272h.002z"/><path fill="#c12d9c" d="M68.64 25.052a4.7 4.7 0 0 1-.45.745l-1.782-6.228-7.198-.257c.328-.9.897-1.683 1.687-2.232 2.256-1.57 5.487-.665 7.217 2.02.33.513.582 1.058.757 1.61.48 1.504.385 3.078-.231 4.344zM77.246 30.66l-6.924 2.59-.446-1.555zM53.759 21.208a5.7 5.7 0 0 0-.71 1.067q-.255.512-.44 1.053l1.596-5.12a10.9 10.9 0 0 0-.446 3"/><path fill="#fc7ab1" d="m72.177 12.96-1.343 2.304-6.142-1.32c-1.81-.478-3.705-.23-5.265.856a6.1 6.1 0 0 0-1.593 1.612c-.123.18-.236.36-.34.55a7.5 7.5 0 0 0-.812 2.418l-.004.02a6 6 0 0 0-.038.287 5 5 0 0 0-.045.466c-.01.105-.012.208-.014.314q-.002.121 0 .248-.001.113.005.228 0 .128.01.257.005.121.018.243c0 .047.007.096.012.145q.017.159.038.319l-2.886.044a10 10 0 0 1-.017-.744 10.8 10.8 0 0 1 .446-3l.08-.262q.248-.767.609-1.486c.732-1.457 2.745-3.88 6.065-3.898z"/><path fill="#fc7ab1" d="m73.673 26.05-4.762 2.266-1.428.677c-1.27.628-2.697.773-4.096.486-2.023-.415-3.981-1.735-5.312-3.802A9.5 9.5 0 0 1 56.66 21.9l2.245-.034q.009.087.018.172a6.7 6.7 0 0 0 1.013 2.745c1.13 1.756 2.902 2.752 4.623 2.791a4.34 4.34 0 0 0 3.624-1.778c.172-.233.326-.483.45-.746l5.034.998z"/><path fill="#fc7ab1" d="m73.673 26.05-1.413-5.374-3.389.032c.48 1.503.385 3.078-.231 4.344z"/><path fill="#ff2d92" d="m70.835 15.264-6.143-1.32c-1.81-.478-3.705-.23-5.265.856-1.522 1.055-2.454 2.716-2.746 4.58a8.6 8.6 0 0 0-.017 2.526l2.244-.034a5.8 5.8 0 0 1 .302-2.558c.328-.9.897-1.683 1.688-2.232 2.255-1.57 5.486-.665 7.216 2.02q.185.289.335.585.259.504.422 1.022l3.389-.031-1.423-5.411z"/><path fill="#fc7ab1" d="m77.247 30.66-3.573-4.61-1.414-5.374-1.425-5.411 1.343-2.304z"/><path fill="#ff2d92" d="m77.246 30.659-7.367 1.035-3.564.503s-.01 0-.011.002l-.892.125h-.055c-3.624.292-7.664-1.643-9.838-5.018a11 11 0 0 1-1.744-5.362l2.886-.045c.033.243.078.481.135.726l.056.238a9.5 9.5 0 0 0 .548 1.568q.038.088.083.176.106.229.23.462.051.095.107.186.119.212.255.42c1.33 2.067 3.29 3.387 5.312 3.801a6.8 6.8 0 0 0 1.831.126 6 6 0 0 0 2.263-.611l1.428-.677 4.762-2.267 3.572 4.61z"/></g><defs><clipPath id="a"><path fill="#fff" d="M52 13h25v22H52z"/></clipPath></defs></svg>