<svg xmlns="http://www.w3.org/2000/svg" width="474" height="79" fill="none" viewBox="0 0 474 79"><path fill="#fff" d="M45.741 2.182C52.496-.08 58.974-.648 64.432.782l.08.022.047.011h.002l.048.015a19.4 19.4 0 0 1 4.209 1.672l.053.026.002.002.04.023A16.6 16.6 0 0 1 73.59 6.37l.054.059.001.002.067.084q.24.29.466.59l.007.007.002.002.002.002.032.046q.547.734 1.02 1.53l.027.037h-.005q.14.24.274.483l.009.017.004.008.027.046h-.002l.066.122.017.032q.144.273.28.554l.034.067.001.002.005.013q.13.271.252.548l.013.026.001.003.013.032a20 20 0 0 1 .714 1.906l.003.003.002.009.01.035q.272.866.477 1.778l.007.022.001.003v.002l.001.002.047.224v.001l.006.034q.065.309.122.624l.007.032h.008v.049q.172.974.27 1.994v.009q.097 1.013.117 2.07l.001.014v.004l.004.035h-.003v.042q.006.465 0 .938v.094h-.002a32 32 0 0 1-.116 2.176v.017h-.002a37 37 0 0 1-.434 3.247l-.025.144-.032.164c-.45 2.41-1.152 4.924-2.113 7.517l-.037.108-.025.073-.034-.058a.04.04 0 0 1-.011-.02l-.69-1.191-.707-1.202v-.001l-.732-1.175-.02-.03-.751-1.156-.005-.008-.79-1.18-.471-.67v-.001l-.342-.495-.01-.014-.838-1.141-.495-.66-.366-.496-.009-.012.002-.014v-.001l.106-.622v-.026l.083-.59.066-.49h-.003l.008-.042.004-.017.008-.041.058-.587v-.003l.036-.574.035-.553.012-.554v-.035l.011-.494-.01-.367h-.001v-.151l-.024-.508-.032-.39h-.003v-.092l-.047-.481-.059-.448-.07-.447v-.001l-.061-.376-.01-.058-.046-.163v-.002l-.001-.002-.047-.247-.094-.386-.001-.005-.097-.323h-.01v-.054l-.115-.36-.118-.354-.094-.221v-.002l-.036-.105-.14-.317-.14-.3-.001-.005-.003-.007-.15-.287-.152-.282-.164-.27-.177-.258-.176-.247-.364-.47-.4-.424-.293-.27-.304-.268-.33-.26-.305-.21-.035-.024-.27-.174-.094-.061-.222-.117h-.002l-.164-.095-.41-.211-.435-.188-.458-.176h-.002l-.362-.106h-.002l-.127-.047-.519-.141-.54-.13-.576-.117-.04-.007-.56-.087-.636-.071-.67-.047-.692-.024h-.728l-.746.012-.777.059-.382.034-.42.037-.81.094-.849.13-.86.164-.883.189h-.004l-.897.21-.006.002-.92.247-.929.271-.034.011-.92.295-.955.342-.73.283-.226.086-.021.009-.978.4-.988.424h-.002l-1.001.46-.99.49-.01.005-.008.004h-.001l-1.006.515-1.013.542-1.014.566-1.013.6-.707.437-.319.19-.267.17-.745.477-.002.001-.198.14-.802.53-.019.014-.652.458-.343.236-1.001.72h-.002l-.95.714-.038.028-.471.365-.519.401-.735.597h.002l-.076.06-.004.003-.165.13-.965.813-.955.837-.938.856-.005.004-.931.861-.907.896-.012.011-.896.897-.871.919-.436.472-.428.45-.009.01-.836.954-.824.954-.01.014h-.002l-.802.966-.141.176-.649.802-.294.388-.417.545-.043.057-.742.99-.719 1.002-.695 1.002-.672 1.014-.626.979-.022.034-.006.01-.604 1-.003.004-.353.602-.248.413-.002.003-.434.797v.002l-.129.21-.01.02-.508.982-.003.005-.004.004-.008.007-.504 1.01-.082.176-.389.825-.445.997-.25.583-.177.412-.374.971-.003.007-.363.961v.053h-.01l-.322.92-.07.234-.224.708-.13.46-.142.471-.164.636-.07.271-.18.77h.001l-.01.044-.024.094-.177.871-.153.86v.005l-.117.831-.003.02-.056.522h-.004.004l-.035.265v.005l-.059.784v.039h-.002l-.046.733v.269l-.011.473.011.494v.213l.036.68.008.075.004.03v.002l.047.553.058.412v.001l.023.207.001.005.106.599.117.576.126.526.004.017.152.503.122.343.007.02v.003h.001v.002l.032.105.003.011.177.447.199.422.2.41.211.354.005.008v.023l.08.12.15.224.247.342.257.315.27.294.282.294.013.012.277.255.003.003.306.259.328.246.297.194h.002l.009.007.03.023.015.011.375.223.1.053.3.159.411.2.444.187h.003l.352.133.118.044.453.14.04.013.53.141.552.118.588.105.244.036h.004l.365.059.53.048.115.01.325.023.346.025.707.023.73-.012.765-.035.777-.047.811-.082.825-.118.845-.141h.002l.016-.004.013.01.02.015.027.02.132.1.007.005.002.001h.001v.002l.012.01.285.214.022.015.008.005v.001h.002v.001l.038.028h.024v.018l.07.053h-.004l.501.379.008.005.013.01 1.142.828.44.311.573.396h.002l.151.118.825.542.354.247.045.03 1.145.737.023.014.319.198.848.53.006.004 1.196.704.027.015.088.05 1.068.62q.015-.004.028.006h.178l-.12.043-.072.025-.33.118-.006.002-.183.065q-.388.14-.775.273l-.239.085-.005.002-.868.281-.318.106h-.001l-.64.19h.034l-.267.07h-.001l-.206.054a46 46 0 0 1-.916.25l-.057.015-.07.017a44 44 0 0 1-.627.157l-.204.051h.035l-.31.07h-.004l-.207.046-.111.025-.838.177h-.001l-.272.049q-.33.063-.66.122l-.223.041h-.002l-.112.017q-.427.07-.85.132l-.18.028h-.002l-.14.016q-.303.041-.603.076l-.377.05h-.002l-.02.002-.231.016q-.339.033-.675.06l-.181.017h-.001l-.354.023-.214.01-.475.024-.043.002h-.014a31 31 0 0 1-1.02.023h-.071q-.44.002-.87-.01l-.16-.002h-.002l-.11-.006a28 28 0 0 1-.512-.023l-.415-.018h-.002l-.221-.023h-.003l-.127-.012-.353-.031-.307-.028h-.003l-.236-.024h-.001l-.763-.106h-.004l-.233-.035h-.004l-.73-.13h-.001l-.236-.048-.72-.153h-.001l-.224-.06-.696-.177h-.001l-.08-.024-.156-.046-.004-.002-.227-.068h.012l-.448-.141h-.001l-.007-.003-.202-.078q-.192-.067-.382-.137l-.281-.1-.007-.003-.212-.083-.637-.26h-.002l-.002-.001-.198-.105-.613-.283-.002-.001H9.76l-.16-.095-.304-.16-.325-.17H8.97l-.2-.118h-.001l-.566-.343H8.2l-.292-.205-.277-.188-.16-.102-.002-.001-.001-.001-.696-.53-.047-.036-.001-.001-.278-.236-.15-.128-.197-.167-.002-.001-.084-.08q-.185-.166-.365-.339l-.187-.17v-.002h-.002l-.17-.183q-.354-.359-.686-.74l-.229-.258-.001-.001-.094-.118-.531-.684-.002-.003-.002-.003-.011-.023-.043-.06q-.162-.225-.318-.455l-.122-.174-.01-.014v-.001l-.001-.001-.083-.13-.008-.012-.026-.042-.237-.383-.001-.001v-.002l-.003-.004-.01-.02-.009-.018-.022-.037-.035-.044-.004-.004-.002-.005-.019-.048-.014-.025-.01-.015v-.001l-.002-.001-.032-.059-.045-.078-.052-.086v-.002h-.001l-.026-.052-.089-.162-.049-.079v-.002l-.085-.158-.007-.013-.003-.006-.014-.028-.01-.02-.07-.141-.001-.001-.001-.003-.024-.047h.001l-.026-.057L2.089 68l-.01-.019-.007-.015-.002-.004-.026-.051h.002l-.082-.172-.022-.033-.002-.002v-.001l-.034-.052h.013l-.062-.15-.077-.18-.033-.076-.115-.252v-.002l-.047-.128-.05-.12-.01-.023v-.002l-.019-.046h.003l-.09-.247-.012-.036-.1-.274-.052-.125v-.002l-.06-.177-.106-.343-.117-.353-.002-.005v-.025l-.037-.138q-.065-.225-.125-.452l-.05-.172-.023-.095v-.001l-.025-.114q-.08-.33-.152-.664l-.035-.116v-.004l-.041-.25a24 24 0 0 1-.115-.63l-.01-.038-.01-.043H.35l-.017-.118a24 24 0 0 1-.076-.508l-.042-.265v-.003l-.013-.14-.008-.087a26 26 0 0 1-.107-1.108l-.003-.033-.001-.026a27 27 0 0 1-.031-.489l-.003-.04v-.011a28 28 0 0 1-.034-.978l-.001-.014v-.027q-.032-1.904.181-3.899l.02-.207v-.002l.017-.115q.051-.45.116-.906v-.005q.074-.517.163-1.036l.01-.083v-.003l.07-.365q.04-.22.082-.442l.001-.006v-.001a42 42 0 0 1 .579-2.548V48.9a48 48 0 0 1 1.049-3.485l.01-.032H2.31l.018-.047.007-.023h.001l.034-.094q.383-1.104.825-2.216l.029-.074v-.002l.006-.011q.083-.21.17-.42c3.237-7.914 8.684-16.043 15.868-23.23l.337-.335.362-.355h-.008l.053-.044c3.925-3.827 8.115-7.14 12.386-9.863h-.088l.181-.06q.577-.366 1.156-.718h-.004l.02-.01q.596-.362 1.194-.71l.003-.002a62 62 0 0 1 7.631-3.777 53 53 0 0 1 3.25-1.21m6.737 11.429a.035.035 0 0 1 .041-.007l.006.004.342.278c14.46 11.828 24.337 28.442 25.144 42.349l.018.327c.09 1.876.01 3.653-.23 5.321h.002l-.005.019a23 23 0 0 1-.56 2.727l-.001.002h.012l-.023.047-.002.004-.003.005c-.415 1.51-.98 2.91-1.683 4.19l-.011.026-.002.004-.002.003-.01.013q-.113.203-.23.402h.003l-.031.051-.008.02h-.004l-.01.016-.004.007h.02l-.055.056q-.15.247-.305.488l-.049.077-.26.39v.001l-.082.108q-.165.233-.336.46l-.101.14-.001.001-.194.236q-.141.175-.287.346l-.085.103h-.001l-.047.05q-.219.252-.448.494l-.095.105-.296.297-.33.318-.002.001-.156.14q-.382.345-.784.669l-.05.041h-.001l-.354.284h-.002l-.335.236q-.304.217-.619.42l-.13.088h-.001l-.39.248-.001.001-.377.213h-.001l-.167.09q-.112.063-.226.123l-.02.011-.012.006q-.216.115-.436.224l-.366.183-.002.001-.4.177-.437.189h-.001l-.425.166-.042.015q-.198.076-.398.147l-.008.003h-.002l-.006.002q-.386.137-.782.26l-.095.033h-.002l-.181.052q-.239.069-.48.135l-.259.073h-.002l-.197.045q-.252.061-.51.119l-.247.06h-.003l-.155.027-.06.01q-.315.064-.635.118l-.115.023h-.004l-.158.023q-.363.057-.734.105l-.097.014h-.004l-.169.019-.252.028-.106.012-.484.047h-.001l-.16.01a27 27 0 0 1-.598.04l-.28.02h-.008l-.307.006q-.312.01-.628.015l-.119.003h-.001l-.139-.001a30 30 0 0 1-.842-.01h-.092l-.398-.012h-.004l-.692-.035h-.004l-.313-.025-.284-.021-.512-.037h-.002l-.355-.044q-.279-.03-.558-.063l-.206-.023h-.001l-.29-.04-.135-.02-.082-.011-.023-.003-.474-.07-.136-.021h-.005l-.518-.083h-.001l-.637-.118-.277-.057q-.226-.044-.453-.092l-.438-.087h-.001l-.358-.088q-.345-.08-.692-.165l-.129-.03-.196-.052-.415-.108-.569-.147-.555-.166-.648-.188-.55-.176-.005-.001-.019-.006-.197-.064h.005l-.438-.143-.29-.105q-.27-.093-.539-.189l-.385-.13-.002-.001-.553-.213-.66-.247h-.002l-.494-.206-.218-.089-.502-.2v-.001l-.567-.248-.66-.283h-.001l-.357-.171-.448-.207-.42-.188h-.002l-.566-.284-.66-.318-.566-.295-.66-.342H37.1l-.566-.307-.64-.35h-.001l-.008-.004-.005-.003-.116-.063h.005l-.453-.26-.01-.005-.007-.004-.107-.062h.002l-.535-.311-.558-.326-.009-.005-.006-.003-.106-.062h.003l-.54-.324-.557-.349-.009-.005-.03-.019-.074-.046-.214-.136-.003-.002-.003-.002-.009-.009-.014-.008-.041-.025-.086-.054-.01-.006-.129-.082-.018-.013-.018-.011-.142-.095-.2-.13-.009-.005-.09-.06h.002l-.063-.041-.142-.093-.24-.154-.318-.213-.003-.001-.012-.013-.157-.105-.27-.183-.328-.222-.01-.006-.012-.01-.082-.055-.318-.218-.026-.018-.01-.007-.096-.064h.008l-.274-.198q-.338-.24-.675-.485l-.117-.077v-.001h-.002l-.365-.272-.566-.424-.247-.177h-.001l-.342-.272-.613-.472-.105-.086q-.247-.195-.495-.392l-.037-.029-.66-.53-.06-.048-.078-.063h.003l-.538-.444-.53-.449-.154-.13-.347-.306-.42-.366-.2-.165v-.001l-.386-.354-.263-.236-.46-.412-.06-.06-.213-.2q-.57-.529-1.134-1.07l-.102-.098-.133-.13a81 81 0 0 1-1.278-1.27l-.3-.3-.519-.542-.496-.52-.011-.01-.236-.248v-.001l-.742-.813-.035-.035h-.001v-.002l-.339-.384a79 79 0 0 1-.534-.603l-.118-.133-.436-.507-.04-.047q-.196-.23-.39-.46l-.101-.119-.05-.058-.15-.178-.71-.86h-.002l-.01-.016-.024-.035-.009-.013.004-.016.142-.53.082-.331.06-.212V51.4l.165-.554.173-.545.004-.01.004-.013.146-.448.015-.047.02-.062.003-.008.189-.567.213-.59.235-.589.011-.045v-.002l.002-.003.224-.542.165-.412v-.002l.004.002-.004-.002.082-.188.26-.602.07-.164.001-.002.212-.448.002-.004.211-.464h-.002l.026-.052.031-.062.016-.032.01-.02.428-.858.175-.348v-.001l.33-.625.027-.051.033.047.003.004.69.97.003.004.706.967.401.519.332.434.01.014.754.954.778.955.79.943.471.534.283.315.06.072.824.918.848.908.318.33.519.53.002.003.002.003.021.032.882.87.247.236.648.625.008.007.893.823.007.007.919.825h.001l.081.062h-.011l.86.75.933.771.01.008.954.767.957.735.01.008.007.005.958.724.578.401.4.295.979.672.978.66.99.625.99.613.234.129h.001l.12.066h-.01l.643.382.908.508.083.047.989.53.672.342.302.163.005.002.977.471.966.448.966.424.01.004.954.384.002.001.943.366.188.068.754.273.93.306.907.272.896.247.005.001.042.01.836.213.872.189.844.164h.003l.825.13.683.094h.002l.129.024.775.082.766.06h.03l.712.034.712.012h.005l.696-.012h.004l.653-.035.647-.059.6-.082.327-.053.25-.041.552-.118.52-.13h.001l.502-.152.368-.123.092-.03.445-.176.425-.189.397-.199.377-.212.351-.222.178-.127.152-.109.055-.044.042-.033h-.005l.084-.064.14-.104.294-.26.282-.27.002-.002.268-.28.259-.294.246-.317.235-.329.222-.35.212-.366.199-.398.176-.411.177-.447.165-.472.14-.493.141-.517.02-.099.086-.455.06-.352v-.002l.046-.234.07-.612.001-.003.059-.632.047-.66.011-.682-.011-.718-.024-.742v-.002l-.056-.696h-.003v-.057l-.024-.236-.058-.552v-.005l-.035-.23-.07-.562-.001-.004-.002-.011-.14-.825-.164-.849-.188-.858-.036-.13v-.001l-.188-.755-.005-.016-.24-.884-.003-.007-.27-.906-.26-.78-.047-.151-.333-.909h-.002l-.007-.024-.353-.954-.13-.293v-.002l-.257-.655-.002-.005-.424-.965-.447-.979-.45-.923h-.004l-.008-.024-.011-.033-.493-.974-.106-.177v-.002l-.424-.813-.224-.389.004-.003-.005.002-.33-.6-.024-.04-.565-.939-.011-.018-.473-.767h-.001l-.01-.016-.033-.054h.003l-.075-.135-.635-.987-.01-.01-.002-.002-.001-.002-.649-.967-.671-.978-.318-.437-.386-.537-.004-.005-.483-.649-.235-.317-.754-.967-.756-.942-.004-.005-.006-.008-.778-.943-.002-.003-.27-.303-.011-.013-.004-.004-.048-.054h.003l-.465-.55-.005-.005-.004-.004-.82-.915-.708-.766v-.002l-.13-.153-.86-.894-.081-.083-.79-.801-.88-.856-.004-.005-.59-.566-.305-.294-.874-.781h-.001l-.01-.01-.035-.035-.93-.825-.006-.004-.925-.785-.013-.01-.94-.766-.002-.002-.954-.755-.967-.73-.01-.008-.956-.712-.836-.577-.002-.001-.137-.103-.003-.003-.047-.032.002-.002.048-.026.613-.33h.001l.625-.319.338-.169h-.027l.162-.067h.001l.14-.06.613-.294.602-.272.601-.27.001-.001.599-.247h.003l.589-.248.578-.225h.001l.39-.144h-.03l.215-.068h.003l.578-.201h.001l.566-.177.554-.177h.001l.554-.154.542-.153h.001l.507-.13.005-.001zm8.273 29.48.33.625.319.625v.001l.295.613.28.608.007.008.061.06h-.03l.248.54.26.602.259.601v.002l.227.579h.004l.006.024.223.576.213.59v.001l.003.01.197.568.19.566.035.106v.001l.137.435.004.013v.001l.154.554.047.153v.001l.106.39.125.52q.016.017.009.038v.002l-.002.002-.004.006-.02.026-.15.191v.001l-.358.428a80 80 0 0 1-2.12 2.462l-.093.107h-.002.001l-.03.031a81 81 0 0 1-1.73 1.862l-.162.171-.124.124a81 81 0 0 1-3.938 3.797l-.002.004-.005.005-.17.15q-.325.291-.653.578l-.097.085-.062.057h.011l-.078.061-.01.01h-.002l-.058.045q-.345.3-.695.596l-.19.164h-.002l-.001-.001.001.002-.062.049q-.562.473-1.132.934l-.007.006-.014.013-.019-.005-.015-.005-.511-.136h-.004l-.542-.142-.555-.154h-.001l-.554-.177-.378-.126-.188-.063-.578-.188h-.001l-.578-.213-.59-.225h-.001l-.583-.245-.006-.002-.312-.128-.007-.002-.27-.117-.001-.001-.595-.257-.007-.003-.613-.283h-.001l-.004-.002-.566-.266h-.003l-.006-.005-.003-.001-.018-.012-.015-.01-.611-.294h-.001l-.613-.32-.613-.318-.019-.01v-.051l.015-.01 1.148-.82h-.002l.07-.05.021-.015 1.203-.893.035-.026.002-.003 1.223-.952 1.214-.99 1.19-1.026 1.178-1.049.27-.259h.001l.001.001v-.001l.871-.826.187-.186h-.002l.055-.053.007-.008.01-.01h.001l.839-.816.035-.035.672-.694.058-.06.01-.01.367-.38.141-.152.507-.554.425-.449 1.048-1.178.059-.07.507-.59.45-.52h-.002l.046-.057.01-.014h.001l.473-.588.471-.566.022-.033.002-.002.471-.601.427-.547.033-.043.919-1.237.884-1.25.033-.047zM14.323.616c4.388-1.002 9.534-.781 15.095.69l.11.027h-.01q2.064.551 4.196 1.332l.28.104.006.003q.008.005.013.014l.04.014-.048.028-.014.007-.005.003-.999.569-.209.119-1.196.715-.679.413-.9.566-.46.295-.484.31-.496.333-.481.323-.893.623-.01.01-.002.002-.002.001-.667.472-.123.09h.002l-.028.018-.61.442-.118.087-.212.16h.005l-.086.062-.01.009h-.001l-.036.025-.2.152v.01l-.02.01-.02.01-.053.04-.045.036h.02l-.096.063-.009.008h-.002l-.017.011-.062.041-.193.147-.045.04-.012.01h-.006l-.013.006-.01.005-.01-.001-.055-.007-.04-.005H24.4l-.528-.094h-.001l-.3-.042-.3-.041-.602-.07-.586-.06h-.002l-.563-.046h-.002l-.275-.018-.291-.018-.541-.012h-.307l-.221-.012-.104.012h-.415l-.506.024-.495.035h-.003l-.467.047-.459.059-.436.07-.422.071-.365.083-.047.011-.389.095-.37.103-.006.002-.185.054-.18.052-.34.117h.001l-.329.13-.318.141-.306.141-.293.153-.282.152-.27.165-.258.176-.243.174-.003.001-.201.162-.27.215-.42.398-.002.001-.399.423-.376.47-.176.247-.175.256-.082.153v.001l-.067.11-.004.007-.165.282-.152.294-.05.115h.004l-.023.047-.001.002-.001.002-.07.14-.13.317-.129.328-.027.083-.008.023v.002l-.094.246-.106.364-.005.02-.077.275-.024.082-.106.388-.073.37h.001l-.008.035-.002.006-.08.424-.002.013-.07.447-.007.06-.005.056-.004.032-.044.3-.047.48v.154l-.023.33-.024.506v.002l-.012.517v.529l.012.554.034.52h.002v.032l.04.502.007.076.047.471.01.111.002.007.07.588.094.613.106.625.003.015-.009.012-.13.177-.732.965-.01.013-.837 1.156-.812 1.165-.009.017h-.003l-.626.928-.162.231-.003.005-.01.014-.473.74v.001l-.282.423-.354.578-.389.613-.003.006-.22.383-.48.806-.004.007-.106.189-.4.708-.172.296a.04.04 0 0 1-.01.019l-.033.056-.026-.07-.118-.306v-.001l-.248-.707-.07-.189H2.35l-.271-.815-.075-.247-.099-.312-.145-.443v-.002l-.165-.577-.118-.425-.212-.755v-.001l-.06-.236-.223-.943-.012-.047v-.002l-.236-1.097-.001-.003v-.024l-.007-.039q-.077-.384-.145-.764l-.048-.253-.023-.095v-.003l-.154-.979v-.003l-.01-.157q-.04-.285-.074-.566l-.01-.077-.032-.24-.004-.032v-.004L.222 23.6h.001l-.031-.303-.056-.558-.003-.032-.009-.086H.122l-.001-.033v-.002l-.004-.035H.12l-.017-.342q-.021-.3-.036-.598l-.003-.047L0 21.5h.05l-.012-.518-.012-.448v-.182a30 30 0 0 1 0-.639v-.34l.014-.287q.007-.239.02-.475l.002-.071v-.156l.035-.484.021-.292.003-.035v-.004l.012-.118.047-.448v-.001l.047-.387v-.051l.056-.322.027-.19.03-.249.005-.04.012-.083v-.001l.06-.295.07-.366.047-.247v-.001l.024-.106.07-.33.062-.276H.688l.011-.044.036-.142.047-.166.022-.076q.043-.165.088-.33l.032-.127H.922l.014-.045.006-.025h.001l.028-.093.033-.108.013-.041.001-.005.008-.025.075-.235.025-.075.064-.196.04-.14v-.001l.001-.001.106-.307v-.001l.008.003-.007-.003.164-.423.024-.07v-.003l.07-.16q.09-.226.185-.45l.04-.096.023-.07.001-.003.002-.003.051-.093.016-.035.041-.103H1.95l.025-.05.008-.02h.002l.073-.145.07-.153.048-.103h-.007l.031-.054.076-.13.051-.1.026-.05.01-.02.017-.031.068-.128.034-.07.01-.019h.001l.048-.086.048-.095.002-.005.004-.004.009-.009.005-.007.088-.157.01-.018V8.91l.002-.002.008-.013.043-.074h-.002l.032-.053.009-.017H2.8l.018-.03.004-.006h-.008l.034-.052.002-.003.02-.03.003-.004.01-.021.008-.016v-.015h.015l.066-.118H2.97l.032-.054.003-.005.007-.012.026-.042v-.001l.393-.594h-.008l.039-.053.009-.018h.004l.449-.61.002-.002.001-.002.012-.012.046-.059q.147-.19.3-.377l.147-.186.001-.002.15-.169q.16-.183.324-.363l.104-.116v-.001h.001l.067-.068a17 17 0 0 1 .443-.45l.09-.096h.002v-.001l.143-.13q.21-.197.426-.387h-.006l.07-.059.057-.047q.268-.231.547-.45l.074-.06V4.03h.001l.085-.064q.946-.728 1.996-1.322l.115-.068h.002l.07-.037q.34-.187.69-.36l.029-.016h.002l.038-.018q.36-.177.729-.338l.046-.022h.002l.034-.014q.542-.235 1.105-.438h-.011l.183-.061q.522-.183 1.062-.34h-.03l.237-.059q.452-.126.916-.234l.045-.012h.002zM111.189 62.032v-45.44h17.024q8.32 0 12.608 2.944 4.352 2.945 4.352 9.344 0 2.88-1.216 5.056-1.152 2.112-3.456 3.328-2.24 1.216-5.44 1.344l-.064-.128q5.823.192 8.96 3.2 3.136 2.945 3.136 7.872 0 6.273-4.352 9.408-4.289 3.072-12.224 3.072zm8.32-7.04h10.624q3.903 0 6.144-1.6 2.304-1.6 2.304-4.736t-2.24-4.8-6.208-1.664h-10.624zm0-19.328h8.448q4.095 0 6.4-1.536 2.304-1.536 2.304-4.48 0-3.071-2.24-4.544t-6.464-1.472h-8.448zm32.995 26.368V27.856h7.68l.32 9.472-.704-.128q.768-4.928 2.88-7.104 2.175-2.24 5.888-2.24h3.136v7.04h-3.2q-2.624 0-4.352.768a5.4 5.4 0 0 0-2.624 2.432q-.832 1.6-.832 4.224v19.712zm36.553.768q-5.056 0-8.896-2.176-3.776-2.24-5.888-6.272-2.049-4.032-2.048-9.408 0-5.439 2.048-9.408 2.111-4.032 5.888-6.208 3.84-2.24 8.896-2.24 5.055 0 8.832 2.24 3.775 2.176 5.824 6.208 2.112 3.969 2.112 9.408 0 5.376-2.112 9.408-2.049 4.032-5.824 6.272-3.777 2.175-8.832 2.176m0-6.656q3.968 0 6.08-2.944 2.175-2.943 2.176-8.256 0-5.248-2.176-8.192-2.112-3.008-6.08-3.008t-6.144 3.008q-2.176 2.945-2.176 8.192 0 5.313 2.176 8.256 2.175 2.944 6.144 2.944m27.15 5.888-10.304-34.176h8.384l6.656 24.896 6.848-24.896h7.168l6.912 24.896 6.656-24.896h8.384l-10.304 34.176h-8.448l-6.784-22.912-6.72 22.912zm56.675.768q-5.056 0-8.512-1.472-3.393-1.471-5.248-4.096-1.857-2.624-2.112-5.952l8.384-.384q.447 2.688 2.24 4.16 1.791 1.473 5.312 1.472 2.88 0 4.48-.896 1.664-.96 1.664-2.944 0-1.152-.576-1.92-.577-.768-2.176-1.344t-4.736-1.152q-5.249-.895-8.256-2.176-3.009-1.344-4.288-3.328-1.216-1.983-1.216-4.928 0-4.8 3.648-7.744 3.712-3.008 10.816-3.008 4.608 0 7.744 1.536 3.135 1.473 4.864 4.096 1.791 2.56 2.24 5.888l-8.256.384q-.321-1.727-1.152-3.008a5.17 5.17 0 0 0-2.24-1.92q-1.408-.704-3.328-.704-2.88 0-4.352 1.152t-1.472 3.072q0 1.344.64 2.24.704.896 2.24 1.472 1.536.513 4.096.96 5.376.832 8.448 2.176 3.135 1.28 4.416 3.328 1.344 1.984 1.344 4.8 0 3.264-1.856 5.568-1.793 2.305-5.12 3.52-3.264 1.152-7.68 1.152m33.913 0q-5.12 0-8.896-2.176-3.775-2.24-5.824-6.272t-2.048-9.408q0-5.375 2.048-9.344 2.049-4.032 5.76-6.272 3.776-2.24 8.768-2.24 4.864 0 8.512 2.176 3.713 2.176 5.696 6.272 1.984 4.095 1.984 9.856v1.856h-24.256q.257 4.48 2.432 6.784 2.24 2.24 5.888 2.24 2.753 0 4.544-1.216 1.857-1.28 2.56-3.52l8.384.512q-1.407 4.992-5.568 7.872-4.095 2.88-9.984 2.88m-8.256-21.056h15.808q-.255-4.16-2.368-6.144-2.112-2.048-5.376-2.048t-5.44 2.112q-2.111 2.112-2.624 6.08m28.74 20.288V27.856h7.68l.32 9.472-.704-.128q.768-4.928 2.88-7.104 2.175-2.24 5.888-2.24h3.136v7.04h-3.2q-2.625 0-4.352.768a5.4 5.4 0 0 0-2.624 2.432q-.832 1.6-.832 4.224v19.712zm55.328 1.024q-5.503 0-9.664-2.112-4.095-2.112-6.336-5.952-2.175-3.903-2.176-9.216V16.528h8.32v29.248q0 4.8 2.56 7.424t7.296 2.624 7.296-2.624q2.625-2.624 2.624-7.424V16.528h8.32v29.248q0 5.313-2.24 9.216-2.24 3.84-6.336 5.952-4.032 2.112-9.664 2.112m38.862-.256q-5.055 0-8.512-1.472-3.391-1.471-5.248-4.096-1.856-2.624-2.112-5.952l8.384-.384q.449 2.688 2.24 4.16 1.793 1.473 5.312 1.472 2.88 0 4.48-.896 1.665-.96 1.664-2.944 0-1.152-.576-1.92t-2.176-1.344-4.736-1.152q-5.247-.895-8.256-2.176-3.007-1.344-4.288-3.328-1.216-1.983-1.216-4.928 0-4.8 3.648-7.744 3.712-3.008 10.816-3.008 4.608 0 7.744 1.536 3.136 1.473 4.864 4.096 1.793 2.56 2.24 5.888l-8.256.384q-.32-1.727-1.152-3.008a5.16 5.16 0 0 0-2.24-1.92q-1.408-.704-3.328-.704-2.88 0-4.352 1.152t-1.472 3.072q0 1.344.64 2.24.705.896 2.24 1.472 1.536.513 4.096.96 5.376.832 8.448 2.176 3.137 1.28 4.416 3.328 1.344 1.984 1.344 4.8 0 3.264-1.856 5.568-1.791 2.305-5.12 3.52-3.264 1.152-7.68 1.152m33.914 0q-5.12 0-8.896-2.176-3.777-2.24-5.824-6.272-2.048-4.032-2.048-9.408t2.048-9.344q2.048-4.032 5.76-6.272 3.776-2.24 8.768-2.24 4.863 0 8.512 2.176 3.711 2.176 5.696 6.272 1.983 4.095 1.984 9.856v1.856h-24.256q.255 4.48 2.432 6.784 2.24 2.24 5.888 2.24 2.751 0 4.544-1.216 1.855-1.28 2.56-3.52l8.384.512q-1.409 4.992-5.568 7.872-4.096 2.88-9.984 2.88m-8.256-21.056h15.808q-.256-4.16-2.368-6.144-2.112-2.048-5.376-2.048t-5.44 2.112q-2.112 2.112-2.624 6.08"/></svg>