<svg width="800" height="180" viewBox="0 0 800 180" fill="none" xmlns="http://www.w3.org/2000/svg">
<path fill-rule="evenodd" clip-rule="evenodd" d="M356 73.5V123H345V62.5H360.53L417.5 111.192V63H428.5V123.5H414.97L356.47 73.5H356Z" fill="white"/>
<path fill-rule="evenodd" clip-rule="evenodd" d="M441.5 123.5V63.0001H452.5V112.5L512.5 112.5V123.5L441.5 123.5Z" fill="white"/>
<path fill-rule="evenodd" clip-rule="evenodd" d="M245.5 93.0001C245.5 76.7077 258.708 63.5001 275 63.5001H305C321.292 63.5001 334.5 76.7077 334.5 93.0001C334.5 109.292 321.292 122.5 305 122.5H275C258.708 122.5 245.5 109.292 245.5 93.0001ZM275 74.5001C264.783 74.5001 256.5 82.7828 256.5 93.0001C256.5 103.217 264.783 111.5 275 111.5H305C315.217 111.5 323.5 103.217 323.5 93.0001C323.5 82.7828 315.217 74.5001 305 74.5001H275Z" fill="white"/>
<path fill-rule="evenodd" clip-rule="evenodd" d="M517.5 93.0001C517.5 76.7077 530.708 63.5001 547 63.5001H577C593.292 63.5001 606.5 76.7077 606.5 93.0001C606.5 109.292 593.292 122.5 577 122.5H547C530.708 122.5 517.5 109.292 517.5 93.0001ZM547 74.5001C536.783 74.5001 528.5 82.7828 528.5 93.0001C528.5 103.217 536.783 111.5 547 111.5H577C587.217 111.5 595.5 103.217 595.5 93.0001C595.5 82.7828 587.217 74.5001 577 74.5001H547Z" fill="white"/>
<path fill-rule="evenodd" clip-rule="evenodd" d="M615.5 93.0001C615.5 76.7077 628.708 63.5001 645 63.5001H675C691.292 63.5001 704.5 76.7077 704.5 93.0001C704.5 109.292 691.292 122.5 675 122.5H645C628.708 122.5 615.5 109.292 615.5 93.0001ZM645 74.5001C634.783 74.5001 626.5 82.7828 626.5 93.0001C626.5 103.217 634.783 111.5 645 111.5H675C685.217 111.5 693.5 103.217 693.5 93.0001C693.5 82.7828 685.217 74.5001 675 74.5001H645Z" fill="white"/>
<path fill-rule="evenodd" clip-rule="evenodd" d="M781.224 63.0001L757.456 83.5H728.5V63.0001H717.5V123H728.5V94.5H757.139L784.214 123H799.386L767.462 89.3958L798.066 63.0001H781.224Z" fill="white"/>
<mask id="mask0_1903_35172" style="mask-type:alpha" maskUnits="userSpaceOnUse" x="0" y="0" width="180" height="180">
<circle cx="90" cy="90" r="90" fill="black"/>
</mask>
<g mask="url(#mask0_1903_35172)">
<path fill-rule="evenodd" clip-rule="evenodd" d="M136.871 166.847C162.737 151.037 180 122.534 180 90C180 40.2944 139.706 0 90 0C40.2944 0 0 40.2944 0 90C0 111.296 7.39648 130.864 19.7606 146.276L52.6117 120.052V83.5641V67.1531L32.5355 47.0762H52.6117H128.129C135.286 47.0762 141.089 52.8786 141.089 60.0362V83.2146C134.327 78.5336 129.459 74.7685 129.459 74.7685L106.612 88.6146L145.728 121.845L136.871 166.847ZM92.5088 57.1567H119.847C119.847 57.1567 120.873 68.5379 105.92 68.5379C92.5084 57.1559 92.5088 57.1567 92.5088 57.1567Z" fill="white"/>
</g>
</svg>
