<svg width="334" height="75" viewBox="0 0 334 75" fill="none" xmlns="http://www.w3.org/2000/svg">
<path d="M26.8298 18.0923C20.6417 18.0923 17.3605 21.7538 17.3605 28.2583V56.3685H0.361328V1.27002H9.90621L15.8713 7.62677C18.7065 3.51405 22.9553 1.27002 28.6973 1.27002H33.8421V18.0923H26.8337H26.8298Z" fill="white"/>
<path d="M37.9355 1.27002H54.9348V32.2232C54.9348 37.9811 58.6619 41.942 64.181 41.942C69.7001 41.942 73.3516 37.9811 73.3516 32.2232V1.27002H90.3508V56.3725H80.8059L74.9922 50.1675C71.042 54.8792 65.4473 57.6423 58.8889 57.6423C46.5128 57.6423 37.9395 48.5943 37.9395 35.3617V1.27002H37.9355Z" fill="white"/>
<path d="M148.21 56.3722H131.211V25.6426C131.211 19.7371 127.408 15.7002 121.742 15.7002C116.075 15.7002 112.273 19.7371 112.273 25.6426V56.3722H95.2734V1.26975H104.818L110.708 7.55064C114.658 2.7671 120.324 0 127.038 0C139.565 0 148.214 9.19573 148.214 22.58V56.3722H148.21Z" fill="white"/>
<path d="M146.349 1.27002H164.092L172.443 32.5227L182.509 1.27002H194.885L204.952 32.6705L213.302 1.27002H229.632L212.335 56.3725H197.498L187.73 26.0941L177.886 56.3725H163.945L146.349 1.27002Z" fill="white"/>
<path d="M252.82 0C267.283 0 276.008 8.00184 276.008 21.3063V56.3722H266.391L261.398 50.9898C257.67 55.3261 252.303 57.642 245.816 57.642C234.26 57.642 226.133 50.4667 226.133 40.2967C226.133 29.4559 234.037 23.175 247.755 23.175H259.462V21.3822C259.462 16.6705 256.854 14.131 251.932 14.131C247.532 14.131 244.701 16.375 244.402 20.1124H227.777C228.745 7.92597 238.589 0 252.828 0L252.82 0ZM259.454 36.3357V33.9439H249.539C245.29 33.9439 242.829 35.8885 242.829 39.2505C242.829 42.8402 245.736 45.0084 250.582 45.0084C256.324 45.0084 259.454 42.0177 259.454 36.3357Z" fill="white"/>
<path d="M303.894 74.6881H285.927L295.543 51.585L273.248 1.27002H293.082L304.638 31.249L315.525 1.27002H333.492L303.894 74.6881Z" fill="white"/>
</svg>
