<svg xmlns="http://www.w3.org/2000/svg" width="93" height="32" fill="none" viewBox="0 0 93 32"><g clip-path="url(#a)"><mask id="b" width="93" height="32" x="0" y="0" maskUnits="userSpaceOnUse" style="mask-type:luminance"><path fill="#fff" d="M93 0H0v32h93z"/></mask><g fill="#fff" mask="url(#b)"><path fill-rule="evenodd" d="M77.352 1.672a.28.28 0 0 0-.22.274v2.672c0 .18.168.314.345.274l7.403-1.665a.28.28 0 0 0 .22-.274V.281a.282.282 0 0 0-.345-.274zm-.22 4.944c0-.132.091-.245.22-.274l15.372-3.458a.282.282 0 0 1 .345.274V5.83a.28.28 0 0 1-.22.275L77.477 9.562a.282.282 0 0 1-.345-.274zM85.1 9.493c0-.131.092-.245.22-.274l7.404-1.665a.282.282 0 0 1 .345.274V10.5a.28.28 0 0 1-.22.274l-7.403 1.665a.282.282 0 0 1-.346-.274z" clip-rule="evenodd"/><path d="M8.176 22.618c0 .09.044.176.118.228 1.488 1.024 3.38 1.686 5.725 1.686 4.138 0 6.295-2.243 6.295-4.935 0-2.792-1.63-4.164-4.765-5.535-1.956-.872-3.762-1.47-3.762-2.866 0-1.047 1.003-1.795 2.809-1.795 1.51 0 2.666.405 3.678 1.137.196.142.485.009.485-.232V7.904a.27.27 0 0 0-.125-.23c-1.154-.743-2.54-1.115-4.113-1.115-3.36 0-5.869 1.77-5.869 4.637 0 2.717 2.032 4.038 4.64 5.135 2.733 1.147 3.912 1.72 3.912 3.266 0 1.096-1.129 2.143-3.36 2.143-2.134 0-3.834-.743-5.17-1.866-.192-.161-.498-.031-.498.218zM21.983 17.926c0 3.84 2.984 6.656 6.896 6.656 1.503 0 2.913-.396 3.957-1.188a.27.27 0 0 0 .106-.217v-2.19c0-.248-.309-.38-.506-.228-1.03.795-2.178 1.106-3.381 1.106-2.358 0-4.088-1.67-4.088-3.939 0-2.268 1.73-3.938 4.088-3.938 1.204 0 2.354.33 3.385 1.117.197.15.502.018.502-.23v-2.197a.27.27 0 0 0-.11-.22c-1.043-.769-2.451-1.187-3.953-1.187-3.912 0-6.896 2.816-6.896 6.655M35.17 23.952c0 .155.127.281.284.281h2.418a.28.28 0 0 0 .283-.281v-6.325c0-2.069 1.33-3.365 3.41-3.365.33 0 .637.024.91.063a.297.297 0 0 0 .345-.286v-2.314a.26.26 0 0 0-.23-.262 7 7 0 0 0-.673-.043c-1.806 0-3.16.822-3.762 2.119V11.95a.28.28 0 0 0-.283-.28h-2.418a.28.28 0 0 0-.283.28zM46.447 10.199c.953 0 1.78-.773 1.78-1.77 0-.998-.827-1.77-1.78-1.77-.978 0-1.805.772-1.805 1.77 0 .997.827 1.77 1.805 1.77m-1.505 13.753c0 .155.127.281.283.281h2.444a.28.28 0 0 0 .283-.28V11.95a.28.28 0 0 0-.283-.28h-2.444a.28.28 0 0 0-.282.28zM50.6 23.952c0 .155.127.281.283.281h2.444a.28.28 0 0 0 .283-.28v-1.54c.426 1.172 1.906 2.095 4.038 2.095 3.56 0 6.32-2.842 6.32-6.557 0-3.714-2.76-6.556-6.32-6.556-2.132 0-3.612.923-4.038 2.094V7.357a.282.282 0 0 0-.345-.274l-2.444.55a.28.28 0 0 0-.22.274zm2.784-6c0-2.194 1.68-3.84 3.862-3.84 2.132 0 3.737 1.646 3.737 3.84s-1.605 3.838-3.737 3.838c-2.181 0-3.862-1.645-3.862-3.839M65.502 18.076c0 3.964 2.708 6.531 6.67 6.531 2.132 0 3.398-.418 4.544-1.188a.28.28 0 0 0 .121-.23v-2.002c0-.245-.303-.383-.507-.246-.786.527-2.075 1.049-4.032 1.049-2.257 0-3.712-1.272-3.812-3.266h9.424c.146 0 .268-.11.278-.253.028-.421.028-.819.028-.819 0-3.49-2.457-6.282-6.169-6.282-3.761 0-6.545 2.568-6.545 6.581zm3.06-1.47c.1-1.497 1.63-2.693 3.485-2.693 1.73 0 3.11 1.221 3.11 2.692z"/></g></g><defs><clipPath id="a"><path fill="#fff" d="M0 0h93v32H0z"/></clipPath></defs></svg>