<svg xmlns="http://www.w3.org/2000/svg" width="1080" height="181" fill="none" viewBox="0 0 1080 181"><path fill="#146ef5" fill-rule="evenodd" d="m288.606.684-92.091 180.027h-86.499l38.54-74.611h-1.729C115.032 147.374 67.593 174.545 0 180.711v-73.578s43.24-2.554 68.661-29.28H0V.686h77.168v63.469l1.732-.007L110.433.686h58.36v63.066l1.732-.003L203.241.684z" clip-rule="evenodd"/><path fill="#fff" d="M790.78 160.84h24.852V18.187H790.78z"/><path fill="#fff" fill-rule="evenodd" d="M653.772 159.383q8.103 3.369 16.478 3.368 13.837 0 24.761-6.736 10.924-6.737 16.933-18.571 6.008-11.926 6.008-27.038t-6.19-27.038-17.206-18.48q-11.014-6.645-25.035-6.555a43.6 43.6 0 0 0-17.114 3.46q-8.194 3.459-13.656 9.832-.421.485-.819.98V18.278h-24.944V160.84h24.762l-.05-13.318a36 36 0 0 0 2.053 2.302q5.918 6.1 14.019 9.559m25.49-23.032q-6.1 3.733-13.928 3.733-7.739 0-14.202-3.824-6.463-3.915-10.287-10.651-3.732-6.736-3.732-15.294-.091-8.558 3.641-15.294 3.823-6.828 10.287-10.56 6.463-3.824 14.293-3.733 7.829-.09 13.928 3.642 6.19 3.64 9.468 10.469 3.368 6.736 3.368 15.476t-3.368 15.476q-3.278 6.736-9.468 10.56" clip-rule="evenodd"/><path fill="#fff" d="M324.611 26.835h28.403l25.408 92.79 27.029-92.79h23.669l29.314 90.928 24.397-90.928h26.036L470.45 160.84h-24.489l-29.807-88.83-27.363 88.83h-24.762z"/><path fill="#fff" fill-rule="evenodd" d="M550.811 163.207q-14.839.09-26.765-6.555-11.834-6.737-18.662-18.662-6.737-11.926-6.737-27.22 0-14.838 6.919-26.855t18.753-18.754 26.401-6.736q16.386 0 28.676 7.282 12.381 7.284 18.48 20.666 6.19 13.29 4.461 30.496h-77.979q.327 6.856 3.421 12.472 3.46 6.19 9.649 9.65 6.19 3.459 13.838 3.459 5.826-.09 10.833-2.002 5.007-2.003 8.467-5.371 3.55-3.369 5.006-7.647h26.037q-2.367 10.469-9.468 18.662-7.101 8.102-17.843 12.654t-23.487 4.461M527.87 91.835a26.3 26.3 0 0 0-3.023 8.193h51.69q-.562-5.545-3.423-10.105-3.276-5.37-8.921-8.284-5.644-3.004-12.745-3.004-7.556 0-13.746 3.459t-9.832 9.74" clip-rule="evenodd"/><path fill="#fff" d="M736.25 60.518q0-12.198 5.554-21.666 5.553-9.56 15.567-14.839 10.104-5.37 23.578-5.553V40.58q-6.282.092-10.742 2.64-4.37 2.46-6.737 7.192-2.18 4.359-2.352 10.105h19.285v21.03h-19.3v79.292H736.25V81.548h-16.022v-21.03z"/><path fill="#fff" fill-rule="evenodd" d="M878.811 163.025q-15.202 0-27.22-6.646-11.925-6.737-18.753-18.571-6.737-11.926-6.737-27.038 0-15.202 6.737-27.129 6.828-12.016 18.753-18.662 12.018-6.645 27.22-6.645 15.294 0 27.311 6.645 12.108 6.645 18.844 18.571t6.828 27.22q-.091 15.112-6.828 27.038-6.645 11.834-18.753 18.571-12.108 6.645-27.402 6.646m0-22.85q8.012 0 14.202-3.642 6.19-3.732 9.558-10.378 3.369-6.736 3.369-15.385 0-8.74-3.369-15.476-3.367-6.736-9.558-10.378-6.19-3.733-14.202-3.733-7.92 0-14.11 3.733-6.1 3.642-9.468 10.378t-3.277 15.476q0 8.649 3.368 15.385 3.459 6.645 9.468 10.378 6.099 3.642 14.019 3.642" clip-rule="evenodd"/><path fill="#fff" d="M958.649 60.518h-27.674l29.95 100.322h24.216l19.699-64.075 21.27 64.075h23.85L1080 60.518h-25.03l-17.04 62.444-18.83-62.444h-24.218l-18.741 63.82z"/></svg>