<svg xmlns="http://www.w3.org/2000/svg" width="218" height="34" viewBox="0 0 218 34" fill="none"><path d="M209.107 3.72613V8.76784H207.84V3.72613H205.917V2.64448H211.036V3.72613H209.107Z" fill="#0F391C"/><path d="M214.358 8.76784L212.881 4.28499V8.76784H211.693V2.64448H213.448L214.871 7.00114L216.282 2.64448H218V8.76784H216.8V4.28499L215.317 8.76784H214.358Z" fill="#0F391C"/><path d="M22.8334 0L29.9482 26.813L37.1051 0H41.5488L32.3298 33.4832H27.9343L20.7774 7.41534L13.6627 33.4832H9.26723L0 0H4.6306L11.7875 26.813L18.86 0H22.8395H22.8334Z" fill="#0F391C"/><path d="M52.5947 34C45.902 34 41.2232 28.8682 41.2232 21.3146C41.2232 13.761 45.902 8.62919 52.5947 8.62919C59.2873 8.62919 63.9662 13.761 63.9662 21.3146C63.9662 28.8682 59.2873 34 52.5947 34ZM52.5947 30.4065C56.8997 30.4065 59.7094 26.8611 59.7094 21.3146C59.7094 15.7681 56.8997 12.1746 52.5947 12.1746C48.2897 12.1746 45.48 15.72 45.48 21.3146C45.48 26.9092 48.2897 30.4065 52.5947 30.4065Z" fill="#0F391C"/><path d="M81.0415 13.2443C80.3421 13.1061 79.7754 13.058 78.9855 13.058C75.4281 13.058 72.5762 15.8583 72.5762 20.1488V33.4892H68.3677V9.09191H72.5762V13.2443C73.6494 10.7745 76.0371 8.90563 79.3593 8.90563C80.0165 8.90563 80.6255 8.9537 81.0415 9.00177V13.2443Z" fill="#0F391C"/><path d="M83.1458 21.3146C83.1458 14.368 87.0288 8.6292 93.8119 8.6292C97.2305 8.6292 99.8955 10.2637 101.391 12.6373V0H105.599V33.4832H101.391V29.9378C99.8955 32.3655 97.2245 33.994 93.8119 33.994C87.0288 33.994 83.1458 28.2132 83.1458 21.3086V21.3146ZM94.5655 12.3128C89.9771 12.3128 87.4086 16.0445 87.4086 21.3146C87.4086 26.5847 89.9832 30.3164 94.5655 30.3164C98.0264 30.3164 101.493 27.7985 101.493 22.204V20.4793C101.493 14.7886 98.0325 12.3188 94.5655 12.3188V12.3128Z" fill="#0F391C"/><path d="M127.788 9.09191L132.84 27.2817L137.941 9.09191H142.15L134.709 33.4832H131.013L125.913 15.3895L120.812 33.4832H117.116L109.675 9.09191H114.029L119.178 27.2337L124.23 9.09191H127.788Z" fill="#0F391C"/><path d="M143.832 26.9092C143.832 22.0597 147.624 20.0527 153.099 18.935L159.044 17.7211V16.6935C159.044 13.8932 157.501 12.3128 154.227 12.3128C151.14 12.3128 149.313 13.761 148.565 16.4652L144.586 15.4376C145.755 11.4715 149.361 8.62919 154.365 8.62919C159.84 8.62919 163.211 11.2853 163.211 16.5133V28.4054C163.211 29.9919 164.193 30.5026 165.833 30.1301V33.4892C162.089 33.9579 159.937 33.0686 159.424 30.737C157.929 32.6479 155.216 33.9099 151.893 33.9099C147.45 33.9099 143.844 31.2959 143.844 26.9152L143.832 26.9092ZM159.038 20.9841L154.263 22.0117C150.519 22.7568 147.992 23.7844 147.992 26.7229C147.992 29.1025 149.723 30.5026 152.388 30.5026C155.993 30.5026 159.032 28.3093 159.032 25.1845V20.9841H159.038Z" fill="#0F391C"/><path d="M183.041 13.2443C182.342 13.1061 181.775 13.058 180.985 13.058C177.428 13.058 174.576 15.8583 174.576 20.1488V33.4892H170.368V9.09191H174.576V13.2443C175.649 10.7745 178.037 8.90563 181.359 8.90563C182.016 8.90563 182.625 8.9537 183.041 9.00177V13.2443Z" fill="#0F391C"/><path d="M184.072 21.3146C184.072 14.0375 188.703 8.62919 195.347 8.62919C201.992 8.62919 205.784 13.8031 205.784 20.5695V21.9696H188.094C188.329 27.1014 191.278 30.3644 195.534 30.3644C198.808 30.3644 201.148 28.5917 201.895 25.7013L205.591 27.0053C204.096 31.3439 200.4 34 195.528 34C188.745 34 184.066 28.8261 184.066 21.3146H184.072ZM188.329 18.7487H201.522C201.425 15.2994 199.556 12.2167 195.299 12.2167C191.742 12.2167 189.077 14.5963 188.329 18.7487Z" fill="#0F391C"/></svg>
