<svg width="702" height="214" viewBox="0 0 702 214" fill="none" xmlns="http://www.w3.org/2000/svg">
<g clip-path="url(#clip0_43_58)">
<path d="M174.599 75H187.4V87.7999H174.599V75ZM161.8 75H174.599V87.7999H161.8V75ZM149 87.7999H161.8V100.6H149V87.7999ZM149 100.6H161.8V113.4H149V100.6ZM161.8 100.6H174.599V113.4H161.8V100.6ZM174.599 100.6H187.4V113.4H174.599V100.6ZM174.599 113.4H187.4V126.2H174.599V113.4ZM174.599 126.2H187.4V139H174.599V126.2ZM161.8 126.2H174.599V139H161.8V126.2ZM149 126.2H161.8V139H149V126.2ZM149 75H161.8V87.7999H149V75ZM200.15 75H212.95V87.7999H200.15V75ZM200.15 87.7999H212.95V100.6H200.15V87.7999ZM200.15 100.6H212.95V113.4H200.15V100.6ZM200.15 113.4H212.95V126.2H200.15V113.4ZM200.15 126.2H212.95V139H200.15V126.2ZM212.95 126.2H225.749V139H212.95V126.2ZM225.749 126.2H238.55V139H225.749V126.2ZM225.749 113.4H238.55V126.2H225.749V113.4ZM225.749 100.6H238.55V113.4H225.749V100.6ZM225.749 87.7999H238.55V100.6H225.749V87.7999ZM225.749 75H238.55V87.7999H225.749V75ZM251.3 75H264.099V87.7999H251.3V75ZM251.3 87.7999H264.099V100.6H251.3V87.7999ZM251.3 100.6H264.099V113.4H251.3V100.6ZM251.3 113.4H264.099V126.2H251.3V113.4ZM251.3 126.2H264.099V139H251.3V126.2ZM264.099 75H276.9V87.7999H264.099V75ZM276.9 75H289.7V87.7999H276.9V75ZM276.9 87.7999H289.7V100.6H276.9V87.7999ZM276.9 100.6H289.7V113.4H276.9V100.6ZM264.099 100.6H276.9V113.4H264.099V100.6ZM302.45 75H315.249V87.7999H302.45V75ZM302.45 87.7999H315.249V100.6H302.45V87.7999ZM302.45 100.6H315.249V113.4H302.45V100.6ZM302.45 113.4H315.249V126.2H302.45V113.4ZM302.45 126.2H315.249V139H302.45V126.2ZM315.249 75H328.05V87.7999H315.249V75ZM315.249 126.2H328.05V139H315.249V126.2ZM315.249 100.6H328.05V113.4H315.249V100.6ZM328.05 75H340.85V87.7999H328.05V75ZM328.05 126.2H340.85V139H328.05V126.2ZM353.6 126.2H366.399V139H353.6V126.2ZM353.6 113.4H366.399V126.2H353.6V113.4ZM353.6 100.6H366.399V113.4H353.6V100.6ZM353.6 87.7999H366.399V100.6H353.6V87.7999ZM353.6 75H366.399V87.7999H353.6V75ZM366.399 75H379.2V87.7999H366.399V75ZM379.2 75H392V87.7999H379.2V75ZM379.2 87.7999H392V100.6H379.2V87.7999ZM366.399 100.6H379.2V113.4H366.399V100.6ZM379.2 113.4H392V126.2H379.2V113.4ZM379.2 126.2H392V139H379.2V126.2ZM430.35 75H443.15V87.7999H430.35V75ZM417.549 75H430.35V87.7999H417.549V75ZM404.75 87.7999H417.549V100.6H404.75V87.7999ZM404.75 100.6H417.549V113.4H404.75V100.6ZM417.549 100.6H430.35V113.4H417.549V100.6ZM430.35 100.6H443.15V113.4H430.35V100.6ZM430.35 113.4H443.15V126.2H430.35V113.4ZM430.35 126.2H443.15V139H430.35V126.2ZM417.549 126.2H430.35V139H417.549V126.2ZM404.75 126.2H417.549V139H404.75V126.2ZM404.75 75H417.549V87.7999H404.75V75ZM455.9 75H468.7V87.7999H455.9V75ZM455.9 87.7999H468.7V100.6H455.9V87.7999ZM455.9 100.6H468.7V113.4H455.9V100.6ZM455.9 113.4H468.7V126.2H455.9V113.4ZM455.9 126.2H468.7V139H455.9V126.2ZM468.7 75H481.5V87.7999H468.7V75ZM468.7 126.2H481.5V139H468.7V126.2ZM468.7 100.6H481.5V113.4H468.7V100.6ZM481.5 75H494.299V87.7999H481.5V75ZM481.5 126.2H494.299V139H481.5V126.2ZM507.049 75H519.85V87.7999H507.049V75ZM519.85 75H532.65V87.7999H519.85V75ZM532.65 75H545.449V87.7999H532.65V75ZM519.85 87.7999H532.65V100.6H519.85V87.7999ZM519.85 100.6H532.65V113.4H519.85V100.6ZM519.85 113.4H532.65V126.2H519.85V113.4ZM519.85 126.2H532.65V139H519.85V126.2Z" fill="#EAE8E6"/>
<g filter="url(#filter0_di_43_58)">
<path d="M617.944 75H607.278V85.6667H617.944V96.3333H628.611V107V117.667H617.944V128.333H607.278V139H617.944H628.611V128.333V117.667H639.278V107V96.3333H628.611V85.6667V75H617.944Z" fill="white"/>
<path d="M617.944 75H607.278V85.6667H617.944V96.3333H628.611V107V117.667H617.944V128.333H607.278V139H617.944H628.611V128.333V117.667H639.278V107V96.3333H628.611V85.6667V75H617.944Z" fill="url(#paint0_linear_43_58)" fill-opacity="0.6"/>
</g>
<g filter="url(#filter1_di_43_58)">
<path d="M585.944 75H575.278V85.6667H585.944V96.3333H596.611V107V117.667H585.944V128.333H575.278V139H585.944H596.611V128.333V117.667H607.278V107V96.3333H596.611V85.6667V75H585.944Z" fill="white"/>
<path d="M585.944 75H575.278V85.6667H585.944V96.3333H596.611V107V117.667H585.944V128.333H575.278V139H585.944H596.611V128.333V117.667H607.278V107V96.3333H596.611V85.6667V75H585.944Z" fill="url(#paint1_linear_43_58)" fill-opacity="0.6"/>
</g>
<g filter="url(#filter2_di_43_58)">
<path d="M76.0556 75H86.7222V85.6667H76.0556V96.3333H65.3889V107V117.667H76.0556V128.333H86.7222V139H76.0556H65.3889V128.333V117.667H54.7222V107V96.3333H65.3889V85.6667V75H76.0556Z" fill="white"/>
<path d="M76.0556 75H86.7222V85.6667H76.0556V96.3333H65.3889V107V117.667H76.0556V128.333H86.7222V139H76.0556H65.3889V128.333V117.667H54.7222V107V96.3333H65.3889V85.6667V75H76.0556Z" fill="url(#paint2_linear_43_58)" fill-opacity="0.6"/>
</g>
<g filter="url(#filter3_di_43_58)">
<path d="M108.055 75H118.722V85.6667H108.055V96.3333H97.3887V107V117.667H108.055V128.333H118.722V139H108.055H97.3887V128.333V117.667H86.7221V107V96.3333H97.3887V85.6667V75H108.055Z" fill="white"/>
<path d="M108.055 75H118.722V85.6667H108.055V96.3333H97.3887V107V117.667H108.055V128.333H118.722V139H108.055H97.3887V128.333V117.667H86.7221V107V96.3333H97.3887V85.6667V75H108.055Z" fill="url(#paint3_linear_43_58)" fill-opacity="0.6"/>
</g>
</g>
<defs>
<filter id="filter0_di_43_58" x="602.355" y="75" width="41.8462" height="73.8462" filterUnits="userSpaceOnUse" color-interpolation-filters="sRGB">
<feFlood flood-opacity="0" result="BackgroundImageFix"/>
<feColorMatrix in="SourceAlpha" type="matrix" values="0 0 0 0 0 0 0 0 0 0 0 0 0 0 0 0 0 0 127 0" result="hardAlpha"/>
<feOffset dy="4.92308"/>
<feGaussianBlur stdDeviation="2.46154"/>
<feComposite in2="hardAlpha" operator="out"/>
<feColorMatrix type="matrix" values="0 0 0 0 0 0 0 0 0 0 0 0 0 0 0 0 0 0 0.08 0"/>
<feBlend mode="normal" in2="BackgroundImageFix" result="effect1_dropShadow_43_58"/>
<feBlend mode="normal" in="SourceGraphic" in2="effect1_dropShadow_43_58" result="shape"/>
<feColorMatrix in="SourceAlpha" type="matrix" values="0 0 0 0 0 0 0 0 0 0 0 0 0 0 0 0 0 0 127 0" result="hardAlpha"/>
<feOffset dy="1.33333"/>
<feGaussianBlur stdDeviation="0.666667"/>
<feComposite in2="hardAlpha" operator="arithmetic" k2="-1" k3="1"/>
<feColorMatrix type="matrix" values="0 0 0 0 1 0 0 0 0 1 0 0 0 0 1 0 0 0 0.5 0"/>
<feBlend mode="normal" in2="shape" result="effect2_innerShadow_43_58"/>
</filter>
<filter id="filter1_di_43_58" x="570.355" y="75" width="41.8462" height="73.8462" filterUnits="userSpaceOnUse" color-interpolation-filters="sRGB">
<feFlood flood-opacity="0" result="BackgroundImageFix"/>
<feColorMatrix in="SourceAlpha" type="matrix" values="0 0 0 0 0 0 0 0 0 0 0 0 0 0 0 0 0 0 127 0" result="hardAlpha"/>
<feOffset dy="4.92308"/>
<feGaussianBlur stdDeviation="2.46154"/>
<feComposite in2="hardAlpha" operator="out"/>
<feColorMatrix type="matrix" values="0 0 0 0 0 0 0 0 0 0 0 0 0 0 0 0 0 0 0.08 0"/>
<feBlend mode="normal" in2="BackgroundImageFix" result="effect1_dropShadow_43_58"/>
<feBlend mode="normal" in="SourceGraphic" in2="effect1_dropShadow_43_58" result="shape"/>
<feColorMatrix in="SourceAlpha" type="matrix" values="0 0 0 0 0 0 0 0 0 0 0 0 0 0 0 0 0 0 127 0" result="hardAlpha"/>
<feOffset dy="1.33333"/>
<feGaussianBlur stdDeviation="0.666667"/>
<feComposite in2="hardAlpha" operator="arithmetic" k2="-1" k3="1"/>
<feColorMatrix type="matrix" values="0 0 0 0 1 0 0 0 0 1 0 0 0 0 1 0 0 0 0.5 0"/>
<feBlend mode="normal" in2="shape" result="effect2_innerShadow_43_58"/>
</filter>
<filter id="filter2_di_43_58" x="49.7991" y="75" width="41.8462" height="73.8462" filterUnits="userSpaceOnUse" color-interpolation-filters="sRGB">
<feFlood flood-opacity="0" result="BackgroundImageFix"/>
<feColorMatrix in="SourceAlpha" type="matrix" values="0 0 0 0 0 0 0 0 0 0 0 0 0 0 0 0 0 0 127 0" result="hardAlpha"/>
<feOffset dy="4.92308"/>
<feGaussianBlur stdDeviation="2.46154"/>
<feComposite in2="hardAlpha" operator="out"/>
<feColorMatrix type="matrix" values="0 0 0 0 0 0 0 0 0 0 0 0 0 0 0 0 0 0 0.08 0"/>
<feBlend mode="normal" in2="BackgroundImageFix" result="effect1_dropShadow_43_58"/>
<feBlend mode="normal" in="SourceGraphic" in2="effect1_dropShadow_43_58" result="shape"/>
<feColorMatrix in="SourceAlpha" type="matrix" values="0 0 0 0 0 0 0 0 0 0 0 0 0 0 0 0 0 0 127 0" result="hardAlpha"/>
<feOffset dy="1.33333"/>
<feGaussianBlur stdDeviation="0.666667"/>
<feComposite in2="hardAlpha" operator="arithmetic" k2="-1" k3="1"/>
<feColorMatrix type="matrix" values="0 0 0 0 1 0 0 0 0 1 0 0 0 0 1 0 0 0 0.5 0"/>
<feBlend mode="normal" in2="shape" result="effect2_innerShadow_43_58"/>
</filter>
<filter id="filter3_di_43_58" x="81.799" y="75" width="41.8462" height="73.8462" filterUnits="userSpaceOnUse" color-interpolation-filters="sRGB">
<feFlood flood-opacity="0" result="BackgroundImageFix"/>
<feColorMatrix in="SourceAlpha" type="matrix" values="0 0 0 0 0 0 0 0 0 0 0 0 0 0 0 0 0 0 127 0" result="hardAlpha"/>
<feOffset dy="4.92308"/>
<feGaussianBlur stdDeviation="2.46154"/>
<feComposite in2="hardAlpha" operator="out"/>
<feColorMatrix type="matrix" values="0 0 0 0 0 0 0 0 0 0 0 0 0 0 0 0 0 0 0.08 0"/>
<feBlend mode="normal" in2="BackgroundImageFix" result="effect1_dropShadow_43_58"/>
<feBlend mode="normal" in="SourceGraphic" in2="effect1_dropShadow_43_58" result="shape"/>
<feColorMatrix in="SourceAlpha" type="matrix" values="0 0 0 0 0 0 0 0 0 0 0 0 0 0 0 0 0 0 127 0" result="hardAlpha"/>
<feOffset dy="1.33333"/>
<feGaussianBlur stdDeviation="0.666667"/>
<feComposite in2="hardAlpha" operator="arithmetic" k2="-1" k3="1"/>
<feColorMatrix type="matrix" values="0 0 0 0 1 0 0 0 0 1 0 0 0 0 1 0 0 0 0.5 0"/>
<feBlend mode="normal" in2="shape" result="effect2_innerShadow_43_58"/>
</filter>
<linearGradient id="paint0_linear_43_58" x1="596.653" y1="72.6" x2="596.737" y2="138.893" gradientUnits="userSpaceOnUse">
<stop stop-color="#BBB9B7"/>
<stop offset="1" stop-color="#848382"/>
</linearGradient>
<linearGradient id="paint1_linear_43_58" x1="564.653" y1="72.6" x2="564.737" y2="138.893" gradientUnits="userSpaceOnUse">
<stop stop-color="#BBB9B7"/>
<stop offset="1" stop-color="#848382"/>
</linearGradient>
<linearGradient id="paint2_linear_43_58" x1="97.3472" y1="72.6" x2="97.263" y2="138.893" gradientUnits="userSpaceOnUse">
<stop stop-color="#BBB9B7"/>
<stop offset="1" stop-color="#848382"/>
</linearGradient>
<linearGradient id="paint3_linear_43_58" x1="129.347" y1="72.6" x2="129.263" y2="138.893" gradientUnits="userSpaceOnUse">
<stop stop-color="#BBB9B7"/>
<stop offset="1" stop-color="#848382"/>
</linearGradient>
<clipPath id="clip0_43_58">
<rect width="702" height="214" fill="white"/>
</clipPath>
</defs>
</svg>
