<svg width="154" height="137" viewBox="0 0 154 137" fill="none" xmlns="http://www.w3.org/2000/svg">
<path d="M96.7786 53.7941C97.9048 55.7445 100.72 55.7445 101.846 53.794L132.059 1.46337C132.867 0.0640056 134.656 -0.41546 136.055 0.39246L145.627 5.91882C147.027 6.72673 147.506 8.51606 146.698 9.91541L116.486 62.2464C115.36 64.1969 116.767 66.635 119.02 66.635L150.269 66.6349C151.884 66.6349 153.194 67.9448 153.194 69.5606L153.194 80.6134C153.194 82.2292 151.884 83.5391 150.269 83.5391L119.02 83.5392C116.767 83.5392 115.36 85.9773 116.486 87.9278L138.571 126.181C139.379 127.581 138.9 129.37 137.5 130.178L127.929 135.704C126.529 136.512 124.74 136.033 123.932 134.633L101.846 96.3799C100.72 94.4294 97.9049 94.4294 96.7788 96.3799L81.1539 123.443C80.346 124.842 78.5566 125.321 77.1573 124.513L67.5853 118.987C66.1859 118.179 65.7065 116.39 66.5144 114.99L82.1394 87.9274C83.2655 85.9769 81.8579 83.5388 79.6057 83.5388L2.92574 83.539C1.3099 83.539 -1.67575e-06 82.2291 0 80.6133L1.14625e-05 69.5606C1.31383e-05 67.9447 1.3099 66.6349 2.92574 66.6349L79.6055 66.6348C81.8577 66.6348 83.2653 64.1967 82.1392 62.2462L66.5144 35.1833C65.7065 33.784 66.186 31.9946 67.5853 31.1867L77.1573 25.6603C78.5567 24.8524 80.346 25.3319 81.1539 26.7312L96.7786 53.7941Z" fill="white" style="fill:white;fill-opacity:1;"/>
</svg>
